<?xml version="1.0" encoding="utf-8" standalone="no"?>
<!DOCTYPE svg PUBLIC "-//W3C//DTD SVG 1.1//EN"
  "http://www.w3.org/Graphics/SVG/1.1/DTD/svg11.dtd">
<svg height="360pt" version="1.1" viewBox="0 0 540 360" width="540pt" xmlns="http://www.w3.org/2000/svg" xmlns:xlink="http://www.w3.org/1999/xlink">
 <metadata>
  <rdf:RDF xmlns:cc="http://creativecommons.org/ns#" xmlns:dc="http://purl.org/dc/elements/1.1/" xmlns:rdf="http://www.w3.org/1999/02/22-rdf-syntax-ns#">
   <cc:Work>
    <dc:type rdf:resource="http://purl.org/dc/dcmitype/StillImage"/>
    <dc:date>2023-07-28T22:39:36.495414</dc:date>
    <dc:format>image/svg+xml</dc:format>
    <dc:creator>
     <cc:Agent>
      <dc:title>Matplotlib v3.4.3, https://matplotlib.org/</dc:title>
     </cc:Agent>
    </dc:creator>
   </cc:Work>
  </rdf:RDF>
 </metadata>
 <defs>
  <style type="text/css">*{stroke-linecap:butt;stroke-linejoin:round;}</style>
 </defs>
 <g id="figure_1">
  <g id="patch_1">
   <path d="M 0 360 
L 540 360 
L 540 0 
L 0 0 
z
" style="fill:#ffffff;"/>
  </g>
  <g id="axes_1">
   <g id="patch_2">
    <path d="M 415.35 181.8 
C 415.35 163.599215 411.764842 145.575409 404.799703 128.760076 
C 397.834564 111.944743 387.624899 96.664899 374.755 83.795 
C 361.885101 70.925101 346.605257 60.715436 329.789924 53.750297 
C 312.974591 46.785158 294.950785 43.2 276.75 43.2 
C 258.549215 43.2 240.525409 46.785158 223.710076 53.750297 
C 206.894743 60.715436 191.614899 70.925101 178.745 83.795 
C 165.875101 96.664899 155.665436 111.944743 148.700297 128.760076 
C 141.735158 145.575409 138.15 163.599215 138.15 181.8 
C 138.15 200.000785 141.735158 218.024591 148.700297 234.839924 
C 155.665436 251.655257 165.875101 266.935101 178.745 279.805 
C 191.614899 292.674899 206.894743 302.884564 223.710076 309.849703 
C 240.525409 316.814842 258.549215 320.4 276.75 320.4 
C 294.950785 320.4 312.974591 316.814842 329.789924 309.849703 
C 346.605257 302.884564 361.885101 292.674899 374.755 279.805 
C 387.624899 266.935101 397.834564 251.655257 404.799703 234.839924 
C 411.764842 218.024591 415.35 200.000785 415.35 181.8 
M 276.75 181.8 
C 276.75 181.8 276.75 181.8 276.75 181.8 
C 276.75 181.8 276.75 181.8 276.75 181.8 
C 276.75 181.8 276.75 181.8 276.75 181.8 
C 276.75 181.8 276.75 181.8 276.75 181.8 
C 276.75 181.8 276.75 181.8 276.75 181.8 
C 276.75 181.8 276.75 181.8 276.75 181.8 
C 276.75 181.8 276.75 181.8 276.75 181.8 
C 276.75 181.8 276.75 181.8 276.75 181.8 
C 276.75 181.8 276.75 181.8 276.75 181.8 
C 276.75 181.8 276.75 181.8 276.75 181.8 
C 276.75 181.8 276.75 181.8 276.75 181.8 
C 276.75 181.8 276.75 181.8 276.75 181.8 
C 276.75 181.8 276.75 181.8 276.75 181.8 
C 276.75 181.8 276.75 181.8 276.75 181.8 
C 276.75 181.8 276.75 181.8 276.75 181.8 
C 276.75 181.8 276.75 181.8 276.75 181.8 
M 415.35 181.8 
z
" style="fill:#ffffff;"/>
   </g>
   <g id="patch_3">
    <path clip-path="url(#p224b3a1b9d)" d="M 363.2364 181.8 
L 229.4874 99.938776 
L 208.2816 300.390748 
z
" style="fill:#ff0000;opacity:0.2;"/>
   </g>
   <g id="patch_4">
    <path clip-path="url(#p224b3a1b9d)" d="M 367.9488 181.8 
L 223.2504 89.135975 
L 208.4202 300.150685 
z
" style="fill:#008000;opacity:0.2;"/>
   </g>
   <g id="patch_5">
    <path clip-path="url(#p224b3a1b9d)" d="M 371.8296 181.8 
L 218.9538 81.694045 
L 208.143 300.63081 
z
" style="fill:#ffc0cb;opacity:0.2;"/>
   </g>
   <g id="patch_6">
    <path clip-path="url(#p224b3a1b9d)" d="M 380.9772 181.8 
L 219.924 83.374481 
L 208.6974 299.670561 
z
" style="fill:#00ff00;opacity:0.2;"/>
   </g>
   <g id="matplotlib.axis_1">
    <g id="xtick_1">
     <g id="line2d_1">
      <path clip-path="url(#p224b3a1b9d)" d="M 276.75 181.8 
L 415.35 181.8 
" style="fill:none;stroke:#b0b0b0;stroke-linecap:square;stroke-width:0.8;"/>
     </g>
     <g id="text_1">
      <!-- Dice -->
      <g transform="translate(419.347656 184.382812)scale(0.1 -0.1)">
       <defs>
        <path d="M 513 4581 
L 2094 4581 
Q 2509 4581 2809 4539 
Q 3109 4497 3382 4333 
Q 3656 4169 3861 3881 
Q 4066 3594 4183 3220 
Q 4300 2847 4300 2316 
Q 4300 1303 3819 651 
Q 3338 0 2163 0 
L 513 0 
L 513 4581 
z
M 1119 544 
L 2100 544 
Q 2400 544 2636 581 
Q 2872 619 3114 784 
Q 3356 950 3515 1328 
Q 3675 1706 3675 2328 
Q 3675 2672 3614 2970 
Q 3553 3269 3389 3514 
Q 3225 3759 3012 3873 
Q 2800 3988 2598 4013 
Q 2397 4038 2081 4038 
L 1119 4038 
L 1119 544 
z
" id="ArialUnicodeMS-44" transform="scale(0.015625)"/>
        <path d="M 991 0 
L 428 0 
L 428 3316 
L 991 3316 
L 991 0 
z
M 991 3944 
L 428 3944 
L 428 4581 
L 991 4581 
L 991 3944 
z
" id="ArialUnicodeMS-69" transform="scale(0.015625)"/>
        <path d="M 3144 1147 
Q 3034 513 2643 217 
Q 2253 -78 1759 -78 
Q 1038 -78 644 395 
Q 250 869 250 1650 
Q 250 2297 476 2686 
Q 703 3075 1043 3233 
Q 1384 3391 1759 3391 
Q 2272 3391 2636 3125 
Q 3000 2859 3084 2344 
L 2541 2259 
Q 2456 2594 2267 2762 
Q 2078 2931 1784 2931 
Q 1313 2931 1069 2597 
Q 825 2263 825 1663 
Q 825 1050 1064 717 
Q 1303 384 1753 384 
Q 2116 384 2323 592 
Q 2531 800 2584 1216 
L 3144 1147 
z
" id="ArialUnicodeMS-63" transform="scale(0.015625)"/>
        <path d="M 3309 1516 
L 825 1516 
Q 859 966 1139 675 
Q 1419 384 1838 384 
Q 2159 384 2378 554 
Q 2597 725 2713 1069 
L 3291 997 
Q 3150 478 2775 200 
Q 2400 -78 1838 -78 
Q 1091 -78 670 380 
Q 250 838 250 1631 
Q 250 2416 658 2903 
Q 1066 3391 1806 3391 
Q 2169 3391 2505 3231 
Q 2841 3072 3075 2689 
Q 3309 2306 3309 1516 
z
M 2731 1978 
Q 2697 2484 2417 2707 
Q 2138 2931 1806 2931 
Q 1409 2931 1153 2665 
Q 897 2400 856 1978 
L 2731 1978 
z
" id="ArialUnicodeMS-65" transform="scale(0.015625)"/>
       </defs>
       <use xlink:href="#ArialUnicodeMS-44"/>
       <use x="72.216797" xlink:href="#ArialUnicodeMS-69"/>
       <use x="94.433594" xlink:href="#ArialUnicodeMS-63"/>
       <use x="144.433594" xlink:href="#ArialUnicodeMS-65"/>
      </g>
     </g>
    </g>
    <g id="xtick_2">
     <g id="line2d_2">
      <path clip-path="url(#p224b3a1b9d)" d="M 276.75 181.8 
L 207.45 61.768879 
" style="fill:none;stroke:#b0b0b0;stroke-linecap:square;stroke-width:0.8;"/>
     </g>
     <g id="text_2">
      <!-- Sensitivity -->
      <g transform="translate(177.942969 52.234367)scale(0.1 -0.1)">
       <defs>
        <path d="M 3213 3238 
Q 3175 3675 2897 3895 
Q 2619 4116 2100 4116 
Q 1631 4116 1337 3941 
Q 1044 3766 1044 3431 
Q 1044 3134 1270 2989 
Q 1497 2844 2138 2700 
Q 2706 2575 3065 2444 
Q 3425 2313 3681 2036 
Q 3938 1759 3938 1294 
Q 3938 703 3467 312 
Q 2997 -78 2241 -78 
Q 1275 -78 795 353 
Q 316 784 288 1472 
L 863 1522 
Q 903 972 1287 720 
Q 1672 469 2216 469 
Q 2725 469 3039 678 
Q 3353 888 3353 1247 
Q 3353 1622 3025 1794 
Q 2697 1966 1923 2133 
Q 1150 2300 809 2603 
Q 469 2906 469 3391 
Q 469 3941 900 4300 
Q 1331 4659 2075 4659 
Q 2838 4659 3302 4301 
Q 3766 3944 3794 3284 
L 3213 3238 
z
" id="ArialUnicodeMS-53" transform="scale(0.015625)"/>
        <path d="M 3138 0 
L 2572 0 
L 2572 2016 
Q 2572 2525 2389 2715 
Q 2206 2906 1881 2906 
Q 1631 2906 1407 2784 
Q 1184 2663 1090 2441 
Q 997 2219 997 1813 
L 997 0 
L 434 0 
L 434 3316 
L 941 3316 
L 941 2847 
L 953 2847 
Q 1131 3119 1392 3255 
Q 1653 3391 1997 3391 
Q 2259 3391 2515 3297 
Q 2772 3203 2917 3015 
Q 3063 2828 3100 2615 
Q 3138 2403 3138 2041 
L 3138 0 
z
" id="ArialUnicodeMS-6e" transform="scale(0.015625)"/>
        <path d="M 2278 2388 
Q 2241 2659 2058 2795 
Q 1875 2931 1550 2931 
Q 1228 2931 1029 2822 
Q 831 2713 831 2503 
Q 831 2306 989 2222 
Q 1147 2138 1613 2016 
Q 2138 1881 2398 1778 
Q 2659 1675 2804 1489 
Q 2950 1303 2950 972 
Q 2950 528 2587 225 
Q 2225 -78 1619 -78 
Q 988 -78 633 189 
Q 278 456 197 991 
L 756 1075 
Q 800 728 1014 556 
Q 1228 384 1613 384 
Q 1981 384 2178 539 
Q 2375 694 2375 916 
Q 2375 1066 2284 1156 
Q 2194 1247 2058 1292 
Q 1922 1338 1447 1453 
Q 741 1622 514 1862 
Q 288 2103 288 2438 
Q 288 2853 619 3122 
Q 950 3391 1509 3391 
Q 2103 3391 2433 3158 
Q 2763 2925 2828 2463 
L 2278 2388 
z
" id="ArialUnicodeMS-73" transform="scale(0.015625)"/>
        <path d="M 1722 6 
Q 1472 -44 1300 -44 
Q 931 -44 762 86 
Q 594 216 556 416 
Q 519 616 519 972 
L 519 2881 
L 109 2881 
L 109 3316 
L 519 3316 
L 519 4141 
L 1081 4481 
L 1081 3316 
L 1644 3316 
L 1644 2881 
L 1081 2881 
L 1081 941 
Q 1081 691 1132 586 
Q 1184 481 1394 481 
Q 1516 481 1644 506 
L 1722 6 
z
" id="ArialUnicodeMS-74" transform="scale(0.015625)"/>
        <path d="M 3122 3316 
L 1869 0 
L 1344 0 
L 84 3316 
L 678 3316 
L 1363 1397 
Q 1556 853 1594 659 
L 1606 659 
Q 1656 859 1778 1197 
L 2547 3316 
L 3122 3316 
z
" id="ArialUnicodeMS-76" transform="scale(0.015625)"/>
        <path d="M 3150 3316 
L 1881 -56 
Q 1878 -63 1875 -78 
Q 1694 -641 1451 -992 
Q 1209 -1344 763 -1344 
Q 613 -1344 397 -1281 
L 341 -750 
Q 503 -800 659 -800 
Q 972 -800 1092 -628 
Q 1213 -456 1363 -6 
L 103 3316 
L 709 3316 
L 1491 1144 
Q 1559 944 1638 628 
L 1650 628 
Q 1728 991 1850 1319 
L 2578 3316 
L 3150 3316 
z
" id="ArialUnicodeMS-79" transform="scale(0.015625)"/>
       </defs>
       <use xlink:href="#ArialUnicodeMS-53"/>
       <use x="66.699219" xlink:href="#ArialUnicodeMS-65"/>
       <use x="122.314453" xlink:href="#ArialUnicodeMS-6e"/>
       <use x="177.929688" xlink:href="#ArialUnicodeMS-73"/>
       <use x="227.929688" xlink:href="#ArialUnicodeMS-69"/>
       <use x="250.146484" xlink:href="#ArialUnicodeMS-74"/>
       <use x="277.929688" xlink:href="#ArialUnicodeMS-69"/>
       <use x="300.146484" xlink:href="#ArialUnicodeMS-76"/>
       <use x="350.146484" xlink:href="#ArialUnicodeMS-69"/>
       <use x="372.363281" xlink:href="#ArialUnicodeMS-74"/>
       <use x="400.146484" xlink:href="#ArialUnicodeMS-79"/>
      </g>
     </g>
    </g>
    <g id="xtick_3">
     <g id="line2d_3">
      <path clip-path="url(#p224b3a1b9d)" d="M 276.75 181.8 
L 207.45 301.831121 
" style="fill:none;stroke:#b0b0b0;stroke-linecap:square;stroke-width:0.8;"/>
     </g>
     <g id="text_3">
      <!-- Specificity -->
      <g transform="translate(177.942969 316.54532)scale(0.1 -0.1)">
       <defs>
        <path d="M 959 2888 
Q 1275 3391 1906 3391 
Q 2559 3391 2937 2917 
Q 3316 2444 3316 1684 
Q 3316 875 2897 398 
Q 2478 -78 1869 -78 
Q 1334 -78 1013 347 
L 997 347 
L 997 -1275 
L 434 -1275 
L 434 3316 
L 947 3316 
L 947 2888 
L 959 2888 
z
M 1831 384 
Q 2225 384 2483 711 
Q 2741 1038 2741 1684 
Q 2741 2294 2492 2622 
Q 2244 2950 1856 2950 
Q 1456 2950 1198 2584 
Q 941 2219 941 1638 
Q 941 1022 1187 703 
Q 1434 384 1831 384 
z
" id="ArialUnicodeMS-70" transform="scale(0.015625)"/>
        <path d="M 1991 4603 
L 1906 4109 
Q 1738 4141 1575 4141 
Q 1372 4141 1242 4055 
Q 1113 3969 1113 3628 
L 1113 3316 
L 1753 3316 
L 1753 2881 
L 1113 2881 
L 1113 0 
L 550 0 
L 550 2881 
L 50 2881 
L 50 3316 
L 550 3316 
L 550 3675 
Q 550 3925 597 4128 
Q 644 4331 845 4495 
Q 1047 4659 1466 4659 
Q 1716 4659 1991 4603 
z
" id="ArialUnicodeMS-66" transform="scale(0.015625)"/>
       </defs>
       <use xlink:href="#ArialUnicodeMS-53"/>
       <use x="66.699219" xlink:href="#ArialUnicodeMS-70"/>
       <use x="122.314453" xlink:href="#ArialUnicodeMS-65"/>
       <use x="177.929688" xlink:href="#ArialUnicodeMS-63"/>
       <use x="227.929688" xlink:href="#ArialUnicodeMS-69"/>
       <use x="250.146484" xlink:href="#ArialUnicodeMS-66"/>
       <use x="277.929688" xlink:href="#ArialUnicodeMS-69"/>
       <use x="300.146484" xlink:href="#ArialUnicodeMS-63"/>
       <use x="350.146484" xlink:href="#ArialUnicodeMS-69"/>
       <use x="372.363281" xlink:href="#ArialUnicodeMS-74"/>
       <use x="400.146484" xlink:href="#ArialUnicodeMS-79"/>
      </g>
     </g>
    </g>
    <g id="xtick_4">
     <g id="line2d_4">
      <path clip-path="url(#p224b3a1b9d)" d="M 276.75 181.8 
L 415.35 181.8 
" style="fill:none;stroke:#b0b0b0;stroke-linecap:square;stroke-width:0.8;"/>
     </g>
     <g id="text_4">
      <!-- Dice -->
      <g transform="translate(419.347656 184.382812)scale(0.1 -0.1)">
       <use xlink:href="#ArialUnicodeMS-44"/>
       <use x="72.216797" xlink:href="#ArialUnicodeMS-69"/>
       <use x="94.433594" xlink:href="#ArialUnicodeMS-63"/>
       <use x="144.433594" xlink:href="#ArialUnicodeMS-65"/>
      </g>
     </g>
    </g>
   </g>
   <g id="matplotlib.axis_2">
    <g id="ytick_1">
     <g id="line2d_5">
      <path clip-path="url(#p224b3a1b9d)" d="M 304.47 181.8 
C 304.47 178.159843 303.752968 174.555082 302.359941 171.192015 
C 300.966913 167.828949 298.92498 164.77298 296.351 162.199 
C 293.77702 159.62502 290.721051 157.583087 287.357985 156.190059 
C 283.994918 154.797032 280.390157 154.08 276.75 154.08 
C 273.109843 154.08 269.505082 154.797032 266.142015 156.190059 
C 262.778949 157.583087 259.72298 159.62502 257.149 162.199 
C 254.57502 164.77298 252.533087 167.828949 251.140059 171.192015 
C 249.747032 174.555082 249.03 178.159843 249.03 181.8 
C 249.03 185.440157 249.747032 189.044918 251.140059 192.407985 
C 252.533087 195.771051 254.57502 198.82702 257.149 201.401 
C 259.72298 203.97498 262.778949 206.016913 266.142015 207.409941 
C 269.505082 208.802968 273.109843 209.52 276.75 209.52 
C 280.390157 209.52 283.994918 208.802968 287.357985 207.409941 
C 290.721051 206.016913 293.77702 203.97498 296.351 201.401 
C 298.92498 198.82702 300.966913 195.771051 302.359941 192.407985 
C 303.752968 189.044918 304.47 185.440157 304.47 181.8 
" style="fill:none;stroke:#b0b0b0;stroke-linecap:square;stroke-width:0.8;"/>
     </g>
     <g id="text_5">
      <!-- 0.6 -->
      <g transform="translate(302.359941 169.199828)scale(0.1 -0.1)">
       <defs>
        <path d="M 1778 4603 
Q 3272 4603 3272 2259 
Q 3272 1075 2886 498 
Q 2500 -78 1778 -78 
Q 288 -78 288 2259 
Q 288 3444 673 4023 
Q 1059 4603 1778 4603 
z
M 1778 384 
Q 2231 384 2462 823 
Q 2694 1263 2694 2259 
Q 2694 2953 2592 3351 
Q 2491 3750 2286 3945 
Q 2081 4141 1772 4141 
Q 1319 4141 1091 3694 
Q 863 3247 863 2259 
Q 863 1575 966 1175 
Q 1069 775 1272 579 
Q 1475 384 1778 384 
z
" id="ArialUnicodeMS-30" transform="scale(0.015625)"/>
        <path d="M 1209 0 
L 569 0 
L 569 641 
L 1209 641 
L 1209 0 
z
" id="ArialUnicodeMS-2e" transform="scale(0.015625)"/>
        <path d="M 838 2363 
Q 1225 2969 1941 2969 
Q 2503 2969 2897 2553 
Q 3291 2138 3291 1491 
Q 3291 838 2898 380 
Q 2506 -78 1856 -78 
Q 1197 -78 733 409 
Q 269 897 269 2144 
Q 269 3369 689 3986 
Q 1109 4603 1906 4603 
Q 2422 4603 2778 4315 
Q 3134 4028 3213 3463 
L 2650 3413 
Q 2497 4141 1875 4141 
Q 1444 4141 1134 3712 
Q 825 3284 825 2363 
L 838 2363 
z
M 1844 384 
Q 2231 384 2472 696 
Q 2713 1009 2713 1453 
Q 2713 1897 2472 2187 
Q 2231 2478 1825 2478 
Q 1453 2478 1184 2204 
Q 916 1931 916 1484 
Q 916 1028 1180 706 
Q 1444 384 1844 384 
z
" id="ArialUnicodeMS-36" transform="scale(0.015625)"/>
       </defs>
       <use xlink:href="#ArialUnicodeMS-30"/>
       <use x="55.615234" xlink:href="#ArialUnicodeMS-2e"/>
       <use x="83.398438" xlink:href="#ArialUnicodeMS-36"/>
      </g>
     </g>
    </g>
    <g id="ytick_2">
     <g id="line2d_6">
      <path clip-path="url(#p224b3a1b9d)" d="M 332.19 181.8 
C 332.19 174.519686 330.755937 167.310164 327.969881 160.584031 
C 325.183826 153.857897 321.099959 147.74596 315.952 142.598 
C 310.80404 137.450041 304.692103 133.366174 297.965969 130.580119 
C 291.239836 127.794063 284.030314 126.36 276.75 126.36 
C 269.469686 126.36 262.260164 127.794063 255.534031 130.580119 
C 248.807897 133.366174 242.69596 137.450041 237.548 142.598 
C 232.400041 147.74596 228.316174 153.857897 225.530119 160.584031 
C 222.744063 167.310164 221.31 174.519686 221.31 181.8 
C 221.31 189.080314 222.744063 196.289836 225.530119 203.015969 
C 228.316174 209.742103 232.400041 215.85404 237.548 221.002 
C 242.69596 226.149959 248.807897 230.233826 255.534031 233.019881 
C 262.260164 235.805937 269.469686 237.24 276.75 237.24 
C 284.030314 237.24 291.239836 235.805937 297.965969 233.019881 
C 304.692103 230.233826 310.80404 226.149959 315.952 221.002 
C 321.099959 215.85404 325.183826 209.742103 327.969881 203.015969 
C 330.755937 196.289836 332.19 189.080314 332.19 181.8 
" style="fill:none;stroke:#b0b0b0;stroke-linecap:square;stroke-width:0.8;"/>
     </g>
     <g id="text_6">
      <!-- 0.7 -->
      <g transform="translate(327.969881 158.591843)scale(0.1 -0.1)">
       <defs>
        <path d="M 3272 4084 
Q 2597 3344 2103 2253 
Q 1609 1163 1522 0 
L 947 0 
Q 969 934 1408 2051 
Q 1847 3169 2547 3975 
L 306 3975 
L 306 4519 
L 3272 4519 
L 3272 4084 
z
" id="ArialUnicodeMS-37" transform="scale(0.015625)"/>
       </defs>
       <use xlink:href="#ArialUnicodeMS-30"/>
       <use x="55.615234" xlink:href="#ArialUnicodeMS-2e"/>
       <use x="83.398438" xlink:href="#ArialUnicodeMS-37"/>
      </g>
     </g>
    </g>
    <g id="ytick_3">
     <g id="line2d_7">
      <path clip-path="url(#p224b3a1b9d)" d="M 359.91 181.8 
C 359.91 170.879529 357.758905 160.065246 353.579822 149.976046 
C 349.400739 139.886846 343.274939 130.718939 335.553 122.997 
C 327.831061 115.275061 318.663154 109.149261 308.573954 104.970178 
C 298.484754 100.791095 287.670471 98.64 276.75 98.64 
C 265.829529 98.64 255.015246 100.791095 244.926046 104.970178 
C 234.836846 109.149261 225.668939 115.275061 217.947 122.997 
C 210.225061 130.718939 204.099261 139.886846 199.920178 149.976046 
C 195.741095 160.065246 193.59 170.879529 193.59 181.8 
C 193.59 192.720471 195.741095 203.534754 199.920178 213.623954 
C 204.099261 223.713154 210.225061 232.881061 217.947 240.603 
C 225.668939 248.324939 234.836846 254.450739 244.926046 258.629822 
C 255.015246 262.808905 265.829529 264.96 276.75 264.96 
C 287.670471 264.96 298.484754 262.808905 308.573954 258.629822 
C 318.663154 254.450739 327.831061 248.324939 335.553 240.603 
C 343.274939 232.881061 349.400739 223.713154 353.579822 213.623954 
C 357.758905 203.534754 359.91 192.720471 359.91 181.8 
" style="fill:none;stroke:#b0b0b0;stroke-linecap:square;stroke-width:0.8;"/>
     </g>
     <g id="text_7">
      <!-- 0.8 -->
      <g transform="translate(353.579822 147.983858)scale(0.1 -0.1)">
       <defs>
        <path d="M 2425 2478 
Q 3284 2203 3284 1306 
Q 3284 716 2862 319 
Q 2441 -78 1778 -78 
Q 1109 -78 689 322 
Q 269 722 269 1325 
Q 269 1759 505 2084 
Q 741 2409 1141 2478 
L 1141 2491 
Q 453 2703 453 3419 
Q 453 3925 815 4264 
Q 1178 4603 1766 4603 
Q 2363 4603 2730 4253 
Q 3097 3903 3097 3406 
Q 3097 2731 2425 2491 
L 2425 2478 
z
M 1778 2700 
Q 2094 2700 2308 2901 
Q 2522 3103 2522 3406 
Q 2522 3716 2305 3928 
Q 2088 4141 1772 4141 
Q 1450 4141 1240 3931 
Q 1031 3722 1031 3438 
Q 1031 3097 1247 2898 
Q 1463 2700 1778 2700 
z
M 1778 384 
Q 2175 384 2440 640 
Q 2706 897 2706 1306 
Q 2706 1716 2432 1978 
Q 2159 2241 1766 2241 
Q 1356 2241 1100 1970 
Q 844 1700 844 1319 
Q 844 922 1108 653 
Q 1372 384 1778 384 
z
" id="ArialUnicodeMS-38" transform="scale(0.015625)"/>
       </defs>
       <use xlink:href="#ArialUnicodeMS-30"/>
       <use x="55.615234" xlink:href="#ArialUnicodeMS-2e"/>
       <use x="83.398438" xlink:href="#ArialUnicodeMS-38"/>
      </g>
     </g>
    </g>
    <g id="ytick_4">
     <g id="line2d_8">
      <path clip-path="url(#p224b3a1b9d)" d="M 387.63 181.8 
C 387.63 167.239372 384.761874 152.820327 379.189763 139.368061 
C 373.617651 125.915795 365.449919 113.691919 355.154 103.396 
C 344.858081 93.100081 332.634205 84.932349 319.181939 79.360237 
C 305.729673 73.788126 291.310628 70.92 276.75 70.92 
C 262.189372 70.92 247.770327 73.788126 234.318061 79.360237 
C 220.865795 84.932349 208.641919 93.100081 198.346 103.396 
C 188.050081 113.691919 179.882349 125.915795 174.310237 139.368061 
C 168.738126 152.820327 165.87 167.239372 165.87 181.8 
C 165.87 196.360628 168.738126 210.779673 174.310237 224.231939 
C 179.882349 237.684205 188.050081 249.908081 198.346 260.204 
C 208.641919 270.499919 220.865795 278.667651 234.318061 284.239763 
C 247.770327 289.811874 262.189372 292.68 276.75 292.68 
C 291.310628 292.68 305.729673 289.811874 319.181939 284.239763 
C 332.634205 278.667651 344.858081 270.499919 355.154 260.204 
C 365.449919 249.908081 373.617651 237.684205 379.189763 224.231939 
C 384.761874 210.779673 387.63 196.360628 387.63 181.8 
" style="fill:none;stroke:#b0b0b0;stroke-linecap:square;stroke-width:0.8;"/>
     </g>
     <g id="text_8">
      <!-- 0.9 -->
      <g transform="translate(379.189763 137.375874)scale(0.1 -0.1)">
       <defs>
        <path d="M 2713 2156 
Q 2547 1888 2258 1722 
Q 1969 1556 1631 1556 
Q 1066 1556 670 1970 
Q 275 2384 275 3053 
Q 275 3734 678 4168 
Q 1081 4603 1716 4603 
Q 2353 4603 2818 4106 
Q 3284 3609 3284 2388 
Q 3284 1147 2859 534 
Q 2434 -78 1644 -78 
Q 1128 -78 781 205 
Q 434 488 359 1063 
L 897 1106 
Q 1025 384 1656 384 
Q 2175 384 2450 857 
Q 2725 1331 2725 2156 
L 2713 2156 
z
M 1766 2047 
Q 2178 2047 2420 2339 
Q 2663 2631 2663 3078 
Q 2663 3531 2414 3836 
Q 2166 4141 1778 4141 
Q 1388 4141 1119 3817 
Q 850 3494 850 3034 
Q 850 2600 1114 2323 
Q 1378 2047 1766 2047 
z
" id="ArialUnicodeMS-39" transform="scale(0.015625)"/>
       </defs>
       <use xlink:href="#ArialUnicodeMS-30"/>
       <use x="55.615234" xlink:href="#ArialUnicodeMS-2e"/>
       <use x="83.398438" xlink:href="#ArialUnicodeMS-39"/>
      </g>
     </g>
    </g>
    <g id="ytick_5">
     <g id="line2d_9">
      <path clip-path="url(#p224b3a1b9d)" d="M 415.35 181.8 
C 415.35 163.599215 411.764842 145.575409 404.799703 128.760076 
C 397.834564 111.944743 387.624899 96.664899 374.755 83.795 
C 361.885101 70.925101 346.605257 60.715436 329.789924 53.750297 
C 312.974591 46.785158 294.950785 43.2 276.75 43.2 
C 258.549215 43.2 240.525409 46.785158 223.710076 53.750297 
C 206.894743 60.715436 191.614899 70.925101 178.745 83.795 
C 165.875101 96.664899 155.665436 111.944743 148.700297 128.760076 
C 141.735158 145.575409 138.15 163.599215 138.15 181.8 
C 138.15 200.000785 141.735158 218.024591 148.700297 234.839924 
C 155.665436 251.655257 165.875101 266.935101 178.745 279.805 
C 191.614899 292.674899 206.894743 302.884564 223.710076 309.849703 
C 240.525409 316.814842 258.549215 320.4 276.75 320.4 
C 294.950785 320.4 312.974591 316.814842 329.789924 309.849703 
C 346.605257 302.884564 361.885101 292.674899 374.755 279.805 
C 387.624899 266.935101 397.834564 251.655257 404.799703 234.839924 
C 411.764842 218.024591 415.35 200.000785 415.35 181.8 
" style="fill:none;stroke:#b0b0b0;stroke-linecap:square;stroke-width:0.8;"/>
     </g>
     <g id="text_9">
      <!-- 1.0 -->
      <g transform="translate(404.799703 126.767889)scale(0.1 -0.1)">
       <defs>
        <path d="M 2400 0 
L 1838 0 
L 1838 3584 
Q 1416 3184 709 2906 
L 709 3450 
Q 1681 3916 2034 4603 
L 2400 4603 
L 2400 0 
z
" id="ArialUnicodeMS-31" transform="scale(0.015625)"/>
       </defs>
       <use xlink:href="#ArialUnicodeMS-31"/>
       <use x="55.615234" xlink:href="#ArialUnicodeMS-2e"/>
       <use x="83.398438" xlink:href="#ArialUnicodeMS-30"/>
      </g>
     </g>
    </g>
   </g>
   <g id="line2d_10">
    <path clip-path="url(#p224b3a1b9d)" d="M 363.2364 181.8 
L 229.4874 99.938776 
L 208.2816 300.390748 
L 363.2364 181.8 
" style="fill:none;stroke:#ff0000;stroke-linecap:square;stroke-width:2;"/>
    <defs>
     <path d="M 0 2.5 
C 0.663008 2.5 1.29895 2.236584 1.767767 1.767767 
C 2.236584 1.29895 2.5 0.663008 2.5 0 
C 2.5 -0.663008 2.236584 -1.29895 1.767767 -1.767767 
C 1.29895 -2.236584 0.663008 -2.5 0 -2.5 
C -0.663008 -2.5 -1.29895 -2.236584 -1.767767 -1.767767 
C -2.236584 -1.29895 -2.5 -0.663008 -2.5 0 
C -2.5 0.663008 -2.236584 1.29895 -1.767767 1.767767 
C -1.29895 2.236584 -0.663008 2.5 0 2.5 
z
" id="md2963af295" style="stroke:#ff0000;"/>
    </defs>
    <g clip-path="url(#p224b3a1b9d)">
     <use style="fill:#ff0000;stroke:#ff0000;" x="363.2364" xlink:href="#md2963af295" y="181.8"/>
     <use style="fill:#ff0000;stroke:#ff0000;" x="229.4874" xlink:href="#md2963af295" y="99.938776"/>
     <use style="fill:#ff0000;stroke:#ff0000;" x="208.2816" xlink:href="#md2963af295" y="300.390748"/>
     <use style="fill:#ff0000;stroke:#ff0000;" x="363.2364" xlink:href="#md2963af295" y="181.8"/>
    </g>
   </g>
   <g id="line2d_11">
    <path clip-path="url(#p224b3a1b9d)" d="M 367.9488 181.8 
L 223.2504 89.135975 
L 208.4202 300.150685 
L 367.9488 181.8 
" style="fill:none;stroke:#008000;stroke-linecap:square;stroke-width:0.8;"/>
    <defs>
     <path d="M 0 2 
C 0.530406 2 1.03916 1.789267 1.414214 1.414214 
C 1.789267 1.03916 2 0.530406 2 0 
C 2 -0.530406 1.789267 -1.03916 1.414214 -1.414214 
C 1.03916 -1.789267 0.530406 -2 0 -2 
C -0.530406 -2 -1.03916 -1.789267 -1.414214 -1.414214 
C -1.789267 -1.03916 -2 -0.530406 -2 0 
C -2 0.530406 -1.789267 1.03916 -1.414214 1.414214 
C -1.03916 1.789267 -0.530406 2 0 2 
z
" id="m84ab5dac9a" style="stroke:#008000;"/>
    </defs>
    <g clip-path="url(#p224b3a1b9d)">
     <use style="fill:#008000;stroke:#008000;" x="367.9488" xlink:href="#m84ab5dac9a" y="181.8"/>
     <use style="fill:#008000;stroke:#008000;" x="223.2504" xlink:href="#m84ab5dac9a" y="89.135975"/>
     <use style="fill:#008000;stroke:#008000;" x="208.4202" xlink:href="#m84ab5dac9a" y="300.150685"/>
     <use style="fill:#008000;stroke:#008000;" x="367.9488" xlink:href="#m84ab5dac9a" y="181.8"/>
    </g>
   </g>
   <g id="line2d_12">
    <path clip-path="url(#p224b3a1b9d)" d="M 371.8296 181.8 
L 218.9538 81.694045 
L 208.143 300.63081 
L 371.8296 181.8 
" style="fill:none;stroke:#ffc0cb;stroke-linecap:square;stroke-width:0.8;"/>
    <defs>
     <path d="M 0 -2 
L -1.902113 -0.618034 
L -1.175571 1.618034 
L 1.175571 1.618034 
L 1.902113 -0.618034 
z
" id="mb793b629fe" style="stroke:#ffc0cb;stroke-linejoin:miter;"/>
    </defs>
    <g clip-path="url(#p224b3a1b9d)">
     <use style="fill:#ffc0cb;stroke:#ffc0cb;stroke-linejoin:miter;" x="371.8296" xlink:href="#mb793b629fe" y="181.8"/>
     <use style="fill:#ffc0cb;stroke:#ffc0cb;stroke-linejoin:miter;" x="218.9538" xlink:href="#mb793b629fe" y="81.694045"/>
     <use style="fill:#ffc0cb;stroke:#ffc0cb;stroke-linejoin:miter;" x="208.143" xlink:href="#mb793b629fe" y="300.63081"/>
     <use style="fill:#ffc0cb;stroke:#ffc0cb;stroke-linejoin:miter;" x="371.8296" xlink:href="#mb793b629fe" y="181.8"/>
    </g>
   </g>
   <g id="line2d_13">
    <path clip-path="url(#p224b3a1b9d)" d="M 380.9772 181.8 
L 219.924 83.374481 
L 208.6974 299.670561 
L 380.9772 181.8 
" style="fill:none;stroke:#00ff00;stroke-linecap:square;stroke-width:0.8;"/>
    <defs>
     <path d="M -2 2 
L 2 2 
L 2 -2 
L -2 -2 
z
" id="mf644e7902a" style="stroke:#00ff00;stroke-linejoin:miter;"/>
    </defs>
    <g clip-path="url(#p224b3a1b9d)">
     <use style="fill:#00ff00;stroke:#00ff00;stroke-linejoin:miter;" x="380.9772" xlink:href="#mf644e7902a" y="181.8"/>
     <use style="fill:#00ff00;stroke:#00ff00;stroke-linejoin:miter;" x="219.924" xlink:href="#mf644e7902a" y="83.374481"/>
     <use style="fill:#00ff00;stroke:#00ff00;stroke-linejoin:miter;" x="208.6974" xlink:href="#mf644e7902a" y="299.670561"/>
     <use style="fill:#00ff00;stroke:#00ff00;stroke-linejoin:miter;" x="380.9772" xlink:href="#mf644e7902a" y="181.8"/>
    </g>
   </g>
   <g id="patch_7">
    <path d="M 415.35 181.8 
C 415.35 163.599215 411.764842 145.575409 404.799703 128.760076 
C 397.834564 111.944743 387.624899 96.664899 374.755 83.795 
C 361.885101 70.925101 346.605257 60.715436 329.789924 53.750297 
C 312.974591 46.785158 294.950785 43.2 276.75 43.2 
C 258.549215 43.2 240.525409 46.785158 223.710076 53.750297 
C 206.894743 60.715436 191.614899 70.925101 178.745 83.795 
C 165.875101 96.664899 155.665436 111.944743 148.700297 128.760076 
C 141.735158 145.575409 138.15 163.599215 138.15 181.8 
C 138.15 200.000785 141.735158 218.024591 148.700297 234.839924 
C 155.665436 251.655257 165.875101 266.935101 178.745 279.805 
C 191.614899 292.674899 206.894743 302.884564 223.710076 309.849703 
C 240.525409 316.814842 258.549215 320.4 276.75 320.4 
C 294.950785 320.4 312.974591 316.814842 329.789924 309.849703 
C 346.605257 302.884564 361.885101 292.674899 374.755 279.805 
C 387.624899 266.935101 397.834564 251.655257 404.799703 234.839924 
C 411.764842 218.024591 415.35 200.000785 415.35 181.8 
" style="fill:none;stroke:#000000;stroke-linecap:square;stroke-linejoin:miter;stroke-width:0.8;"/>
   </g>
   <g id="legend_1">
    <g id="patch_8">
     <path d="M 453.865 80.08 
L 533.09 80.08 
Q 535.09 80.08 535.09 78.08 
L 535.09 22.48 
Q 535.09 20.48 533.09 20.48 
L 453.865 20.48 
Q 451.865 20.48 451.865 22.48 
L 451.865 78.08 
Q 451.865 80.08 453.865 80.08 
z
" style="fill:#ffffff;opacity:0.8;stroke:#cccccc;stroke-linejoin:miter;"/>
    </g>
    <g id="line2d_14">
     <path d="M 455.865 28.137812 
L 475.865 28.137812 
" style="fill:none;stroke:#ff0000;stroke-linecap:square;stroke-width:2;"/>
    </g>
    <g id="line2d_15">
     <g>
      <use style="fill:#ff0000;stroke:#ff0000;" x="465.865" xlink:href="#md2963af295" y="28.137812"/>
     </g>
    </g>
    <g id="text_10">
     <!-- FCN -->
     <g transform="translate(483.865 31.637812)scale(0.1 -0.1)">
      <defs>
       <path d="M 3603 4038 
L 1119 4038 
L 1119 2619 
L 3272 2619 
L 3272 2075 
L 1119 2075 
L 1119 0 
L 513 0 
L 513 4581 
L 3603 4581 
L 3603 4038 
z
" id="ArialUnicodeMS-46" transform="scale(0.015625)"/>
       <path d="M 4372 1453 
Q 4172 681 3673 301 
Q 3175 -78 2478 -78 
Q 1353 -78 839 626 
Q 325 1331 325 2322 
Q 325 3419 929 4039 
Q 1534 4659 2484 4659 
Q 3153 4659 3628 4318 
Q 4103 3978 4294 3322 
L 3700 3181 
Q 3550 3659 3244 3900 
Q 2938 4141 2478 4141 
Q 1728 4141 1340 3648 
Q 953 3156 953 2328 
Q 953 1372 1361 906 
Q 1769 441 2425 441 
Q 2963 441 3298 731 
Q 3634 1022 3769 1606 
L 4372 1453 
z
" id="ArialUnicodeMS-43" transform="scale(0.015625)"/>
       <path d="M 4109 0 
L 3488 0 
L 1094 3597 
L 1081 3597 
L 1081 0 
L 506 0 
L 506 4581 
L 1125 4581 
L 3519 984 
L 3531 984 
L 3531 4581 
L 4109 4581 
L 4109 0 
z
" id="ArialUnicodeMS-4e" transform="scale(0.015625)"/>
      </defs>
      <use xlink:href="#ArialUnicodeMS-46"/>
      <use x="61.083984" xlink:href="#ArialUnicodeMS-43"/>
      <use x="133.300781" xlink:href="#ArialUnicodeMS-4e"/>
     </g>
    </g>
    <g id="line2d_16">
     <path d="M 455.865 42.287812 
L 475.865 42.287812 
" style="fill:none;stroke:#008000;stroke-linecap:square;stroke-width:0.8;"/>
    </g>
    <g id="line2d_17">
     <g>
      <use style="fill:#008000;stroke:#008000;" x="465.865" xlink:href="#m84ab5dac9a" y="42.287812"/>
     </g>
    </g>
    <g id="text_11">
     <!-- Att-U-Net -->
     <g transform="translate(483.865 45.787812)scale(0.1 -0.1)">
      <defs>
       <path d="M 4275 0 
L 3591 0 
L 3053 1394 
L 1141 1394 
L 634 0 
L -6 0 
L 1753 4581 
L 2406 4581 
L 4275 0 
z
M 2869 1875 
Q 2306 3363 2234 3564 
Q 2163 3766 2075 4103 
L 2059 4103 
Q 1972 3641 1825 3247 
L 1313 1875 
L 2869 1875 
z
" id="ArialUnicodeMS-41" transform="scale(0.015625)"/>
       <path d="M 1925 1375 
L 206 1375 
L 206 1941 
L 1925 1941 
L 1925 1375 
z
" id="ArialUnicodeMS-2d" transform="scale(0.015625)"/>
       <path d="M 4109 1931 
Q 4109 1578 4070 1278 
Q 4031 978 3864 661 
Q 3697 344 3320 133 
Q 2944 -78 2316 -78 
Q 1703 -78 1328 109 
Q 953 297 778 594 
Q 603 891 554 1212 
Q 506 1534 506 1931 
L 506 4581 
L 1113 4581 
L 1113 1941 
Q 1113 1528 1172 1229 
Q 1231 931 1484 700 
Q 1738 469 2266 469 
Q 2800 469 3069 653 
Q 3338 838 3419 1145 
Q 3500 1453 3500 1941 
L 3500 4581 
L 4109 4581 
L 4109 1931 
z
" id="ArialUnicodeMS-55" transform="scale(0.015625)"/>
      </defs>
      <use xlink:href="#ArialUnicodeMS-41"/>
      <use x="66.699219" xlink:href="#ArialUnicodeMS-74"/>
      <use x="94.482422" xlink:href="#ArialUnicodeMS-74"/>
      <use x="122.265625" xlink:href="#ArialUnicodeMS-2d"/>
      <use x="155.566406" xlink:href="#ArialUnicodeMS-55"/>
      <use x="227.783203" xlink:href="#ArialUnicodeMS-2d"/>
      <use x="261.083984" xlink:href="#ArialUnicodeMS-4e"/>
      <use x="333.300781" xlink:href="#ArialUnicodeMS-65"/>
      <use x="388.916016" xlink:href="#ArialUnicodeMS-74"/>
     </g>
    </g>
    <g id="line2d_18">
     <path d="M 455.865 56.437812 
L 475.865 56.437812 
" style="fill:none;stroke:#ffc0cb;stroke-linecap:square;stroke-width:0.8;"/>
    </g>
    <g id="line2d_19">
     <g>
      <use style="fill:#ffc0cb;stroke:#ffc0cb;stroke-linejoin:miter;" x="465.865" xlink:href="#mb793b629fe" y="56.437812"/>
     </g>
    </g>
    <g id="text_12">
     <!-- Nas-U-Net -->
     <g transform="translate(483.865 59.937812)scale(0.1 -0.1)">
      <defs>
       <path d="M 3303 0 
L 2713 0 
Q 2631 156 2597 409 
Q 2031 -78 1375 -78 
Q 850 -78 547 184 
Q 244 447 244 878 
Q 244 1291 536 1558 
Q 828 1825 1550 1913 
L 2075 1991 
Q 2369 2038 2559 2106 
Q 2559 2359 2543 2464 
Q 2528 2569 2451 2681 
Q 2375 2794 2206 2862 
Q 2038 2931 1753 2931 
Q 1391 2931 1180 2797 
Q 969 2663 891 2297 
L 341 2369 
Q 431 2878 806 3134 
Q 1181 3391 1838 3391 
Q 2434 3391 2714 3214 
Q 2994 3038 3058 2788 
Q 3122 2538 3122 2144 
L 3122 1388 
Q 3122 697 3148 461 
Q 3175 225 3303 0 
z
M 2559 1459 
L 2559 1663 
Q 2119 1516 1481 1430 
Q 844 1344 844 891 
Q 844 663 1016 514 
Q 1188 366 1509 366 
Q 1925 366 2242 614 
Q 2559 863 2559 1459 
z
" id="ArialUnicodeMS-61" transform="scale(0.015625)"/>
      </defs>
      <use xlink:href="#ArialUnicodeMS-4e"/>
      <use x="72.216797" xlink:href="#ArialUnicodeMS-61"/>
      <use x="127.832031" xlink:href="#ArialUnicodeMS-73"/>
      <use x="177.832031" xlink:href="#ArialUnicodeMS-2d"/>
      <use x="211.132812" xlink:href="#ArialUnicodeMS-55"/>
      <use x="283.349609" xlink:href="#ArialUnicodeMS-2d"/>
      <use x="316.650391" xlink:href="#ArialUnicodeMS-4e"/>
      <use x="388.867188" xlink:href="#ArialUnicodeMS-65"/>
      <use x="444.482422" xlink:href="#ArialUnicodeMS-74"/>
     </g>
    </g>
    <g id="line2d_20">
     <path d="M 455.865 70.587812 
L 475.865 70.587812 
" style="fill:none;stroke:#00ff00;stroke-linecap:square;stroke-width:0.8;"/>
    </g>
    <g id="line2d_21">
     <g>
      <use style="fill:#00ff00;stroke:#00ff00;stroke-linejoin:miter;" x="465.865" xlink:href="#mf644e7902a" y="70.587812"/>
     </g>
    </g>
    <g id="text_13">
     <!-- Ours -->
     <g transform="translate(483.865 74.087812)scale(0.1 -0.1)">
      <defs>
       <path d="M 2497 4659 
Q 3459 4659 4071 4006 
Q 4684 3353 4684 2284 
Q 4684 1219 4068 570 
Q 3453 -78 2497 -78 
Q 1506 -78 903 594 
Q 300 1266 300 2234 
Q 300 3363 911 4011 
Q 1522 4659 2497 4659 
z
M 2491 441 
Q 3188 441 3620 928 
Q 4053 1416 4056 2284 
Q 4056 3178 3614 3659 
Q 3172 4141 2503 4141 
Q 1816 4141 1372 3669 
Q 928 3197 928 2222 
Q 928 1425 1362 933 
Q 1797 441 2491 441 
z
" id="ArialUnicodeMS-4f" transform="scale(0.015625)"/>
       <path d="M 3116 0 
L 2613 0 
L 2613 488 
L 2597 488 
Q 2216 -78 1556 -78 
Q 1209 -78 914 83 
Q 619 244 520 526 
Q 422 809 422 1259 
L 422 3316 
L 984 3316 
L 984 1478 
Q 984 1038 1026 847 
Q 1069 656 1247 532 
Q 1425 409 1672 409 
Q 1991 409 2272 629 
Q 2553 850 2553 1544 
L 2553 3316 
L 3116 3316 
L 3116 0 
z
" id="ArialUnicodeMS-75" transform="scale(0.015625)"/>
       <path d="M 2216 3213 
L 2022 2694 
Q 1813 2816 1613 2816 
Q 1297 2816 1134 2533 
Q 972 2250 972 1741 
L 972 0 
L 409 0 
L 409 3316 
L 922 3316 
L 922 2816 
L 934 2816 
Q 1203 3391 1638 3391 
Q 1925 3391 2216 3213 
z
" id="ArialUnicodeMS-72" transform="scale(0.015625)"/>
      </defs>
      <use xlink:href="#ArialUnicodeMS-4f"/>
      <use x="77.783203" xlink:href="#ArialUnicodeMS-75"/>
      <use x="133.398438" xlink:href="#ArialUnicodeMS-72"/>
      <use x="166.699219" xlink:href="#ArialUnicodeMS-73"/>
     </g>
    </g>
   </g>
  </g>
 </g>
 <defs>
  <clipPath id="p224b3a1b9d">
   <path d="M 415.35 181.8 
C 415.35 163.599215 411.764842 145.575409 404.799703 128.760076 
C 397.834564 111.944743 387.624899 96.664899 374.755 83.795 
C 361.885101 70.925101 346.605257 60.715436 329.789924 53.750297 
C 312.974591 46.785158 294.950785 43.2 276.75 43.2 
C 258.549215 43.2 240.525409 46.785158 223.710076 53.750297 
C 206.894743 60.715436 191.614899 70.925101 178.745 83.795 
C 165.875101 96.664899 155.665436 111.944743 148.700297 128.760076 
C 141.735158 145.575409 138.15 163.599215 138.15 181.8 
C 138.15 200.000785 141.735158 218.024591 148.700297 234.839924 
C 155.665436 251.655257 165.875101 266.935101 178.745 279.805 
C 191.614899 292.674899 206.894743 302.884564 223.710076 309.849703 
C 240.525409 316.814842 258.549215 320.4 276.75 320.4 
C 294.950785 320.4 312.974591 316.814842 329.789924 309.849703 
C 346.605257 302.884564 361.885101 292.674899 374.755 279.805 
C 387.624899 266.935101 397.834564 251.655257 404.799703 234.839924 
C 411.764842 218.024591 415.35 200.000785 415.35 181.8 
M 276.75 181.8 
C 276.75 181.8 276.75 181.8 276.75 181.8 
C 276.75 181.8 276.75 181.8 276.75 181.8 
C 276.75 181.8 276.75 181.8 276.75 181.8 
C 276.75 181.8 276.75 181.8 276.75 181.8 
C 276.75 181.8 276.75 181.8 276.75 181.8 
C 276.75 181.8 276.75 181.8 276.75 181.8 
C 276.75 181.8 276.75 181.8 276.75 181.8 
C 276.75 181.8 276.75 181.8 276.75 181.8 
C 276.75 181.8 276.75 181.8 276.75 181.8 
C 276.75 181.8 276.75 181.8 276.75 181.8 
C 276.75 181.8 276.75 181.8 276.75 181.8 
C 276.75 181.8 276.75 181.8 276.75 181.8 
C 276.75 181.8 276.75 181.8 276.75 181.8 
C 276.75 181.8 276.75 181.8 276.75 181.8 
C 276.75 181.8 276.75 181.8 276.75 181.8 
C 276.75 181.8 276.75 181.8 276.75 181.8 
M 415.35 181.8 
z
"/>
  </clipPath>
 </defs>
</svg>
